
      <svg data-logo="logo" xmlns="http://www.w3.org/2000/svg" viewBox="0 0 152 45">
        <g id="logogram" transform="translate(0, 1) rotate(0) "><path d="M37.5 27.0752C37.5 20.4478 32.1274 15.0752 25.5 15.0752H15.5V27.0752H25.5V42.0752H37.5V27.0752Z" fill="#FF4D00"/><path d="M0.5 28.0752C0.500001 35.8072 6.76801 42.0752 14.5 42.0752L22.5 42.0752L22.5 30.0752H14.5C13.3954 30.0752 12.5 29.1798 12.5 28.0752V27.0752L0.5 27.0752L0.5 28.0752Z" fill="#FF4D00"/><path d="M25.5 0.0751953C40.4117 0.0751953 52.5 12.1635 52.5 27.0752V42.0752H40.5V27.0752C40.5 18.7909 33.7843 12.0752 25.5 12.0752H14.5C13.3954 12.0752 12.5 12.9706 12.5 14.0752V15.0752H0.500001V14.0752C0.500002 6.34321 6.76802 0.0751953 14.5 0.0751953H25.5Z" fill="#FF4D00"/></g>
        <g id="logotype" transform="translate(59, 9)"><path fill="#111111" d="M13.52 27L8.31 27L8.31 1.54L18.24 1.54Q21.14 1.54 23.18 2.56Q25.21 3.59 26.28 5.45Q27.35 7.31 27.35 9.82L27.35 9.82Q27.35 12.34 26.26 14.16Q25.17 15.98 23.12 16.94Q21.06 17.91 18.12 17.91L18.12 17.91L11.38 17.91L11.38 13.69L17.28 13.69Q18.89 13.69 19.91 13.25Q20.94 12.82 21.45 11.95Q21.96 11.09 21.96 9.82L21.96 9.82Q21.96 8.53 21.45 7.65Q20.94 6.77 19.90 6.30Q18.87 5.84 17.26 5.84L17.26 5.84L13.52 5.84L13.52 27ZM28.25 27L22.47 27L16.27 15.41L21.93 15.41L28.25 27ZM37.44 27.38L37.44 27.38Q34.57 27.38 32.47 26.14Q30.37 24.90 29.23 22.68Q28.10 20.47 28.10 17.53L28.10 17.53Q28.10 14.56 29.23 12.35Q30.37 10.13 32.47 8.89Q34.57 7.65 37.44 7.65L37.44 7.65Q40.33 7.65 42.42 8.89Q44.52 10.13 45.65 12.35Q46.79 14.56 46.79 17.53L46.79 17.53Q46.79 20.47 45.65 22.68Q44.52 24.90 42.42 26.14Q40.33 27.38 37.44 27.38ZM37.44 23.34L37.44 23.34Q38.81 23.34 39.73 22.58Q40.66 21.82 41.12 20.50Q41.58 19.17 41.58 17.52L41.58 17.52Q41.58 15.82 41.12 14.51Q40.66 13.19 39.73 12.44Q38.81 11.69 37.44 11.69L37.44 11.69Q36.08 11.69 35.16 12.44Q34.25 13.19 33.79 14.51Q33.32 15.82 33.32 17.52L33.32 17.52Q33.32 19.17 33.79 20.50Q34.25 21.82 35.16 22.58Q36.08 23.34 37.44 23.34ZM59.30 27L53.47 27L46.43 7.89L51.88 7.89L55.10 17.81Q55.68 19.67 56.11 21.57Q56.55 23.46 57.01 25.50L57.01 25.50L55.92 25.50Q56.36 23.46 56.79 21.57Q57.21 19.67 57.80 17.81L57.80 17.81L60.97 7.89L66.36 7.89L59.30 27ZM71.93 27L66.80 27L66.80 7.89L71.93 7.89L71.93 27ZM69.36 5.40L69.36 5.40Q68.20 5.40 67.38 4.63Q66.56 3.86 66.56 2.77L66.56 2.77Q66.56 1.67 67.38 0.90Q68.20 0.13 69.36 0.13L69.36 0.13Q70.53 0.13 71.35 0.90Q72.18 1.66 72.18 2.77L72.18 2.77Q72.18 3.86 71.35 4.63Q70.53 5.40 69.36 5.40ZM82.55 27.38L82.55 27.38Q79.68 27.38 77.58 26.14Q75.48 24.90 74.34 22.68Q73.21 20.47 73.21 17.53L73.21 17.53Q73.21 14.56 74.34 12.35Q75.48 10.13 77.58 8.89Q79.68 7.65 82.55 7.65L82.55 7.65Q85.44 7.65 87.54 8.89Q89.63 10.13 90.77 12.35Q91.90 14.56 91.90 17.53L91.90 17.53Q91.90 20.47 90.77 22.68Q89.63 24.90 87.54 26.14Q85.44 27.38 82.55 27.38ZM82.55 23.34L82.55 23.34Q83.92 23.34 84.84 22.58Q85.77 21.82 86.23 20.50Q86.69 19.17 86.69 17.52L86.69 17.52Q86.69 15.82 86.23 14.51Q85.77 13.19 84.84 12.44Q83.92 11.69 82.55 11.69L82.55 11.69Q81.19 11.69 80.27 12.44Q79.36 13.19 78.90 14.51Q78.44 15.82 78.44 17.52L78.44 17.52Q78.44 19.17 78.90 20.50Q79.36 21.82 80.27 22.58Q81.19 23.34 82.55 23.34Z"/></g>
        
      </svg>
    